<svg width="119" height="161" viewBox="0 0 119 161" fill="none" xmlns="http://www.w3.org/2000/svg">
<path d="M102.008 37.9345C97.263 43.8264 91.5169 47.8068 85.8795 52.6048C80.2421 57.4028 13.8743 107.755 5.66011 120.71C-2.55404 133.664 -1.1715 158.614 20.0964 159.573C41.3643 160.533 96.1144 159.573 96.1144 159.573C112.002 156.215 116.614 146.139 116.614 136.783C113.539 120.71 110.961 114.926 105.324 102.957C99.7018 97.6794 94.5766 103.917 96.1144 107.035C97.6522 110.154 105.962 136.707 105.324 137.023C104.314 146.619 100.214 148.778 91.7583 149.258H19.256C13.1698 148.377 10.9941 143.74 12.0662 136.783C16.1661 110.178 89.4523 71.7967 109.439 46.3671C129.426 20.9376 110.207 1.74571 94.5767 1.74607C78.9461 1.74642 30.5304 0.0671721 21.8185 1.74617C13.1065 3.42516 1.06274 12.0618 1.06274 24.0568C1.06274 36.0518 6.88709 52.0863 12.3375 57.6427C17.7878 63.1991 24.7573 57.7336 21.8185 52.6048C18.8796 47.476 12.9664 37.6374 12.3375 25.2198C12.9178 17.2065 15.1559 13.2249 25.6621 12.0254H92.7833C109.176 12.2219 106.753 32.0425 102.008 37.9345Z" fill="white" stroke="white" stroke-width="2"/>
</svg>
