<svg width="28" height="28" viewBox="0 0 28 28" fill="none" xmlns="http://www.w3.org/2000/svg">
<path d="M2 4.13333C2 3.3866 2 3.01323 2.14532 2.72801C2.27316 2.47713 2.47713 2.27316 2.72801 2.14532C3.01323 2 3.3866 2 4.13333 2H23.8667C24.6135 2 24.9868 2 25.272 2.14532C25.5229 2.27316 25.7268 2.47713 25.8547 2.72801C26 3.01323 26 3.3866 26 4.13333V6.44968C26 6.7758 26 6.93885 25.9632 7.09231C25.9305 7.22836 25.8767 7.35841 25.8035 7.47771C25.7211 7.61227 25.6057 7.72757 25.3752 7.95817L17.2915 16.0419C17.0609 16.2724 16.9456 16.3877 16.8632 16.5223C16.79 16.6416 16.7361 16.7716 16.7035 16.9077C16.6667 17.0612 16.6667 17.2243 16.6667 17.5503V20.6667L11.3333 26V17.5503C11.3333 17.2243 11.3333 17.0612 11.2965 16.9077C11.2638 16.7716 11.21 16.6416 11.1369 16.5223C11.0544 16.3877 10.9391 16.2724 10.7085 16.0419L2.62484 7.95817C2.39424 7.72757 2.27893 7.61227 2.19648 7.47771C2.12337 7.35841 2.06951 7.22836 2.03684 7.09231C2 6.93885 2 6.7758 2 6.44968V4.13333Z" stroke="#333333" stroke-width="2.5" stroke-linecap="round" stroke-linejoin="round"/>
</svg>
